<svg width="54" height="54" viewBox="0 0 54 54" fill="none" xmlns="http://www.w3.org/2000/svg">
<circle cx="27" cy="27" r="26.5" stroke="white"/>
<path d="M31.7351 25.997L24.1885 18.4637C24.0645 18.3388 23.9171 18.2396 23.7546 18.1719C23.5921 18.1042 23.4179 18.0693 23.2418 18.0693C23.0658 18.0693 22.8916 18.1042 22.7291 18.1719C22.5666 18.2396 22.4191 18.3388 22.2952 18.4637C22.0469 18.7135 21.9075 19.0515 21.9075 19.4037C21.9075 19.756 22.0469 20.0939 22.2952 20.3437L28.8951 27.0103L22.2952 33.6102C22.0469 33.86 21.9075 34.1979 21.9075 34.5502C21.9075 34.9024 22.0469 35.2404 22.2952 35.4902C22.4187 35.6162 22.5659 35.7164 22.7284 35.785C22.8909 35.8537 23.0654 35.8894 23.2418 35.8902C23.4182 35.8894 23.5928 35.8537 23.7553 35.785C23.9178 35.7164 24.065 35.6162 24.1885 35.4902L31.7351 27.9569C31.8704 27.8321 31.9784 27.6805 32.0523 27.5119C32.1262 27.3432 32.1643 27.1611 32.1643 26.9769C32.1643 26.7928 32.1262 26.6107 32.0523 26.442C31.9784 26.2734 31.8704 26.1218 31.7351 25.997Z" fill="#F36F2A"/>
</svg>
