<svg width="54" height="54" viewBox="0 0 54 54" fill="none" xmlns="http://www.w3.org/2000/svg">
<circle cx="27" cy="27" r="26.5" transform="matrix(-1 0 0 1 54 0)" stroke="white"/>
<path d="M22.2649 25.997L29.8115 18.4637C29.9355 18.3388 30.0829 18.2396 30.2454 18.1719C30.4079 18.1042 30.5821 18.0693 30.7582 18.0693C30.9342 18.0693 31.1084 18.1042 31.2709 18.1719C31.4334 18.2396 31.5809 18.3388 31.7048 18.4637C31.9531 18.7135 32.0925 19.0515 32.0925 19.4037C32.0925 19.756 31.9531 20.0939 31.7048 20.3437L25.1049 27.0103L31.7048 33.6102C31.9531 33.86 32.0925 34.1979 32.0925 34.5502C32.0925 34.9024 31.9531 35.2404 31.7048 35.4902C31.5813 35.6162 31.4341 35.7164 31.2716 35.785C31.1091 35.8537 30.9346 35.8894 30.7582 35.8902C30.5818 35.8894 30.4072 35.8537 30.2447 35.785C30.0822 35.7164 29.935 35.6162 29.8115 35.4902L22.2649 27.9569C22.1296 27.8321 22.0216 27.6805 21.9477 27.5119C21.8738 27.3432 21.8357 27.1611 21.8357 26.9769C21.8357 26.7928 21.8738 26.6107 21.9477 26.442C22.0216 26.2734 22.1296 26.1218 22.2649 25.997Z" fill="#F36F2A"/>
</svg>
