<svg width="124" height="20" viewBox="0 0 124 20" fill="none" xmlns="http://www.w3.org/2000/svg">
<g opacity="0.5">
<path d="M63.541 6.55314V4.82991C63.541 4.57122 63.5529 4.37085 63.5771 4.2293C63.6012 4.08754 63.656 3.94812 63.7411 3.81049C63.8261 3.67294 63.9637 3.57798 64.1537 3.52536C64.3439 3.47265 64.5968 3.44638 64.9124 3.44638H66.6356V0H63.8808C62.2868 0 61.142 0.378176 60.4462 1.13453C59.7504 1.89105 59.4026 3.00538 59.4026 4.47796V6.5531H57.3393V9.99974H59.4025V19.9995H63.541V9.99978H66.2956L66.6597 6.55314H63.541Z" fill="white"/>
</g>
<g opacity="0.5">
<path d="M124.003 19.995V12.6702C124.003 9.07026 123.228 6.32031 119.028 6.32031C117.003 6.32031 115.653 7.42029 115.103 8.47027H115.053V6.64531H111.078V19.995H115.228V13.3702C115.228 11.6202 115.553 9.94524 117.703 9.94524C119.828 9.94524 119.853 11.9202 119.853 13.4702V19.97H124.003V19.995Z" fill="white"/>
<path d="M104.324 6.64844H108.474V19.9982H104.324V6.64844Z" fill="white"/>
<path d="M106.4 0C105.075 0 104 1.07498 104 2.39995C104 3.72493 105.075 4.82491 106.4 4.82491C107.725 4.82491 108.8 3.72493 108.8 2.39995C108.8 1.07498 107.725 0 106.4 0Z" fill="white"/>
</g>
<g opacity="0.5">
<path d="M13.7497 0H6.24988C2.7987 0 0 2.7987 0 6.24988V13.7497C0 17.2009 2.7987 19.9996 6.24988 19.9996H13.7497C17.2009 19.9996 19.9996 17.2009 19.9996 13.7497V6.24988C19.9996 2.7987 17.2009 0 13.7497 0ZM18.1246 13.7497C18.1246 16.1622 16.1622 18.1246 13.7497 18.1246H6.24988C3.83742 18.1246 1.87496 16.1622 1.87496 13.7497V6.24988C1.87496 3.83742 3.83742 1.87496 6.24988 1.87496H13.7497C16.1622 1.87496 18.1246 3.83742 18.1246 6.24988V13.7497Z" fill="white"/>
<path d="M9.99978 5C7.23858 5 4.99988 7.23871 4.99988 9.9999C4.99988 12.7611 7.23858 14.9998 9.99978 14.9998C12.761 14.9998 14.9997 12.7611 14.9997 9.9999C14.9997 7.23871 12.761 5 9.99978 5ZM9.99978 13.1248C8.27731 13.1248 6.87484 11.7224 6.87484 9.9999C6.87484 8.27619 8.27731 6.87496 9.99978 6.87496C11.7222 6.87496 13.1247 8.27619 13.1247 9.9999C13.1247 11.7224 11.7222 13.1248 9.99978 13.1248Z" fill="white"/>
<path d="M15.3733 5.29146C15.7412 5.29146 16.0395 4.99317 16.0395 4.62522C16.0395 4.25727 15.7412 3.95898 15.3733 3.95898C15.0053 3.95898 14.707 4.25727 14.707 4.62522C14.707 4.99317 15.0053 5.29146 15.3733 5.29146Z" fill="white"/>
</g>
</svg>
