<svg width="38" height="35" viewBox="0 0 38 35" fill="none" xmlns="http://www.w3.org/2000/svg">
<path d="M34.3 2.00112C29.2 2.00112 22.4 3.70112 22.4 15.6011V29.2011C22.4 31.3261 23.6852 32.63 25.8 32.6011H32.6C34.725 32.6011 36 31.3261 36 29.2487V19.0011C36 16.8761 34.725 15.6011 32.6 15.6011C30.9 15.6011 30.9 15.6011 30.9 13.9011V12.2011C30.9 10.5011 32.6 8.80111 34.3 8.80111C36 8.80111 36 8.78751 36 7.04841L36 3.70112C36 2.00112 36 2.00112 34.3 2.00112Z" fill="#F36F2B" stroke="#F36F2B" stroke-width="3" stroke-linecap="round" stroke-linejoin="round"/>
<path d="M13.9 2.00112C8.80003 2.00112 2.00003 3.70112 2.00003 15.6011L2.00003 29.2011C2.00003 31.3261 3.28693 32.63 5.40003 32.6011H12.2C14.325 32.6011 15.6 31.3261 15.6 29.2487L15.6 19.0011C15.6 16.8761 14.325 15.6011 12.2 15.6011H10.925C10.925 11.7761 10.5 8.80111 15.6 8.80111V3.70112C15.6 2.00112 15.6 2.00112 13.9 2.00112Z" fill="#F36F2B" stroke="#F36F2B" stroke-width="3" stroke-linecap="round" stroke-linejoin="round"/>
</svg>
