<svg width="44" height="44" viewBox="0 0 44 44" fill="none" xmlns="http://www.w3.org/2000/svg">
<path d="M26 15.5833C26 16.6884 25.561 17.7482 24.7796 18.5296C23.9982 19.311 22.9384 19.75 21.8333 19.75H9.33333L1 28.0833V5.16667C1 2.875 2.875 1 5.16667 1H21.8333C22.9384 1 23.9982 1.43899 24.7796 2.22039C25.561 3.00179 26 4.0616 26 5.16667V15.5833Z" stroke="black" stroke-width="2" stroke-linecap="round" stroke-linejoin="round"/>
<path d="M34.3334 15.583H38.5C39.6051 15.583 40.6649 16.022 41.4463 16.8034C42.2277 17.5848 42.6667 18.6446 42.6667 19.7497V42.6663L34.3334 34.333H21.8334C20.7283 34.333 19.6685 33.894 18.8871 33.1126C18.1057 32.3312 17.6667 31.2714 17.6667 30.1663V28.083" stroke="black" stroke-width="2" stroke-linecap="round" stroke-linejoin="round"/>
</svg>
