<svg width="146" height="146" viewBox="0 0 146 146" fill="none" xmlns="http://www.w3.org/2000/svg">
<g clip-path="url(#clip0_1_290)">
<path d="M88.1192 84.0527C90.1328 83.5538 89.9925 83.786 89.4977 81.7714L84.4774 73.943C82.4688 70.8108 81.7529 67.019 82.4803 63.3647L83.9228 56.117C83.428 54.1024 84.4423 54.7153 82.4287 55.2142L77.9936 59.4763C74.9316 62.4187 70.7306 63.8605 66.5138 63.4162L55.9978 62.3083C53.9842 62.8072 54.6845 61.6482 55.1794 63.6628L60.1569 68.6259C64.0777 72.5355 65.4025 78.3557 63.5627 83.5886L61.4376 89.6329C61.9325 91.6475 61.2739 91.2495 63.2875 90.7506L67.5735 86.1402C71.3897 82.0354 77.2347 80.5155 82.5554 82.2446L88.1192 84.0527Z" fill="white"/>
<path d="M52.9066 48.8906C50.664 42.5333 44.1882 38.5173 37.5566 39.7227C33.897 40.3881 30.4599 42.5272 28.2648 46.1602C26.0696 49.7931 25.7723 53.8312 26.8867 57.3813C28.9039 63.8126 35.4719 67.6761 42.1419 66.7061L58.3584 64.3456L52.9058 48.892L52.9066 48.8906Z" fill="white" stroke="white" stroke-width="1.30788" stroke-miterlimit="10"/>
<path d="M56.5611 63.2598L68.7716 70.6378L56.5611 63.2598Z" fill="white"/>
<path d="M56.5611 63.2598L68.7716 70.6378" stroke="white" stroke-width="2.61577" stroke-miterlimit="10"/>
<path d="M97.0754 52.9407C103.431 50.6848 107.455 44.1958 106.262 37.5602C105.604 33.8984 103.473 30.4619 99.8468 28.2711C96.2211 26.0804 92.1887 25.7907 88.6384 26.9116C82.2096 28.942 78.3381 35.523 79.2954 42.1975L81.6251 58.4248L97.074 52.9399L97.0754 52.9407Z" fill="white" stroke="white" stroke-width="1.30788" stroke-miterlimit="10"/>
<path d="M82.7131 56.624L75.3204 68.8589L82.7131 56.624Z" fill="white"/>
<path d="M82.7131 56.624L75.3204 68.8589" stroke="white" stroke-width="2.61577" stroke-miterlimit="10"/>
<path d="M92.9249 97.391C95.1675 103.748 101.643 107.764 108.275 106.559C111.935 105.893 115.372 103.754 117.567 100.121C119.762 96.4885 120.059 92.4504 118.945 88.9003C116.928 82.469 110.36 78.6055 103.69 79.5755L87.4732 81.936L92.9257 97.3896L92.9249 97.391Z" fill="white" stroke="white" stroke-width="1.30788" stroke-miterlimit="10"/>
<path d="M89.2695 83.0235L77.059 75.6455L89.2695 83.0235Z" fill="white"/>
<path d="M89.2695 83.0235L77.059 75.6455" stroke="white" stroke-width="2.61577" stroke-miterlimit="10"/>
<path d="M48.6483 92.8928C42.293 95.1487 38.2692 101.638 39.4618 108.273C40.1202 111.935 42.2512 115.372 45.877 117.562C49.5027 119.753 53.5351 120.043 57.0853 118.922C63.5142 116.891 67.3857 110.31 66.4284 103.636L64.0987 87.4087L48.6498 92.8936L48.6483 92.8928Z" fill="white" stroke="white" stroke-width="1.30788" stroke-miterlimit="10"/>
<path d="M63.0091 89.2085L70.4019 76.9736L63.0091 89.2085Z" fill="white"/>
<path d="M63.0091 89.2085L70.4019 76.9736" stroke="white" stroke-width="2.61577" stroke-miterlimit="10"/>
</g>
<defs>
<clipPath id="clip0_1_290">
<rect width="106" height="106" fill="white" transform="translate(55.0471 0.228516) rotate(31.1417)"/>
</clipPath>
</defs>
</svg>
